#!OML:ASF X:\für Bonn\!DataBase\2005_08_10_Bjorn_Final\c3d\bjorn.ASF
:FULLY-SPECIFIED
:DEGREES
873
root 0.163819 1.42977 19.8467 -274.204 -0.728033 -534.862
lowerback 2.90181 -0.438738 1.28377
upperback 4.14503 -0.709679 -0.428831
thorax 2.611 -0.378952 -1.15845
lowerneck -18.2596 -2.75514 1.57318
upperneck 10.2968 -4.56016 2.48158
head 6.11876 -1.98943 0.0635623
rclavicle -2.38542e-015 4.12478e-015
rhumerus -59.1592 49.2212 -108.513
rradius 106.609
rwrist -32.2791
rhand 6.60045 6.98208
rfingers 7.12502
rthumb 31.8953 -20.2448
lclavicle -2.38542e-015 4.12478e-015
lhumerus -59.3691 -59.0369 106.986
lradius 107.144
lwrist 38.7126
lhand 11.1172 -369.764
lfingers 7.12502
lthumb 36.1852 16.5071
rfemur -1.58841 -19.2005 7.91261
rtibia 25.5926
rfoot 5.18943 -5.50345
rtoes 17.1021
lfemur -4.68967 3.28095 -11.3022
ltibia 27.1823
lfoot 2.93192 7.78148
ltoes 13.8531
874
root 0.163666 1.42947 19.8465 -274.201 -0.745336 -534.863
lowerback 2.90109 -0.44476 1.25919
upperback 4.14534 -0.717892 -0.431649
thorax 2.61167 -0.38369 -1.14753
lowerneck -18.2986 -2.74366 1.59652
upperneck 10.3284 -4.54491 2.43791
head 6.13346 -1.98319 0.0467348
rclavicle 8.74653e-015 -2.08724e-015
rhumerus -59.1436 49.2351 -108.502
rradius 106.612
rwrist -32.3464
rhand 6.62326 6.99143
rfingers 7.12502
rthumb 31.917 -20.2311
lclavicle 8.74653e-015 -2.08724e-015
lhumerus -59.3439 -59.013 106.954
lradius 107.156
lwrist 38.731
lhand 11.1172 -369.75
lfingers 7.12502
lthumb 36.1852 16.5213
rfemur -1.59619 -19.2151 7.88926
rtibia 25.6011
rfoot 5.20206 -5.49064
rtoes 17.0969
lfemur -4.69109 3.28214 -11.3233
ltibia 27.18
lfoot 2.92501 7.79517
ltoes 13.7983
875
root 0.163898 1.42936 19.8467 -274.193 -0.746839 -534.869
lowerback 2.90572 -0.44523 1.24901
upperback 4.1305 -0.717808 -0.425888
thorax 2.59388 -0.383852 -1.13571
lowerneck -18.2974 -2.73782 1.59994
upperneck 10.3506 -4.5332 2.40891
head 6.13945 -1.97886 0.0380247
rclavicle -1.82882e-014 -3.23025e-015
rhumerus -59.1882 49.2466 -108.52
rradius 106.631
rwrist -32.3705
rhand 6.60246 6.98187
rfingers 7.12502
rthumb 31.8972 -20.2446
lclavicle -1.82882e-014 -3.23025e-015
lhumerus -59.3707 -58.9746 106.981
lradius 107.166
lwrist 38.736
lhand 11.1752 -369.733
lfingers 7.12502
lthumb 36.2401 16.5243
rfemur -1.61098 -19.2014 7.89469
rtibia 25.6042
rfoot 5.20685 -5.50553
rtoes 17.0819
lfemur -4.70116 3.27067 -11.3281
ltibia 27.1829
lfoot 2.91176 7.80961
ltoes 13.9129
876
root 0.164079 1.429 19.8468 -274.193 -0.745826 -534.87
lowerback 2.90873 -0.447378 1.2397
upperback 4.13031 -0.720937 -0.417942
thorax 2.59207 -0.385843 -1.12227
lowerneck -18.3077 -2.72799 1.60788
upperneck 10.3521 -4.51606 2.37537
head 6.14043 -1.9724 0.0277598
rclavicle 5.56597e-015 -1.04362e-015
rhumerus -59.1783 49.2509 -108.511
rradius 106.611
rwrist -32.4098
rhand 6.61013 7.01188
rfingers 7.12502
rthumb 31.9045 -20.2132
lclavicle 5.56597e-015 -1.04362e-015
lhumerus -59.3412 -58.955 106.96
lradius 107.177
lwrist 38.7404
lhand 11.1692 -369.736
lfingers 7.12502
lthumb 36.2345 16.5223
rfemur -1.61373 -19.1845 7.90178
rtibia 25.6037
rfoot 5.19184 -5.52843
rtoes 17.1392
lfemur -4.70604 3.273 -11.3257
ltibia 27.1885
lfoot 2.91127 7.82732
ltoes 13.8914
877
root 0.164259 1.42879 19.8471 -274.184 -0.744573 -534.861
lowerback 2.91209 -0.455454 1.23846
upperback 4.11827 -0.730883 -0.421171
thorax 2.57742 -0.390641 -1.12468
lowerneck -18.3204 -2.71294 1.64451
upperneck 10.3886 -4.4981 2.32673
head 6.15207 -1.9649 0.00782499
rclavicle 3.97569e-015 -6.4605e-016
rhumerus -59.1921 49.2486 -108.531
rradius 106.614
rwrist -32.4542
rhand 6.64627 6.99856
rfingers 7.12502
rthumb 31.9389 -20.2196
lclavicle 3.97569e-015 -6.4605e-016
lhumerus -59.348 -58.9331 106.947
lradius 107.194
lwrist 38.7847
lhand 11.1803 -369.707
lfingers 7.12502
lthumb 36.245 16.5486
rfemur -1.62482 -19.1927 7.90667
rtibia 25.607
rfoot 5.19025 -5.53028
rtoes 17.1412
lfemur -4.72107 3.39438 -11.3071
ltibia 27.1928
lfoot 2.98808 7.73301
ltoes 13.7256
878
root 0.164662 1.42847 19.8462 -274.184 -0.743453 -534.845
lowerback 2.92471 -0.462987 1.22873
upperback 4.10693 -0.740439 -0.415071
thorax 2.5585 -0.395741 -1.11264
lowerneck -18.3116 -2.70438 1.66418
upperneck 10.3916 -4.48463 2.28873
head 6.15007 -1.96035 -0.00587082
rclavicle 7.15625e-015 -5.1684e-015
rhumerus -59.2153 49.2315 -108.532
rradius 106.625
rwrist -32.4911
rhand 6.65449 7.01037
rfingers 7.12502
rthumb 31.9468 -20.2062
lclavicle 7.15625e-015 -5.1684e-015
lhumerus -59.3498 -58.9217 106.954
lradius 107.192
lwrist 38.7694
lhand 11.2071 -369.744
lfingers 7.12502
lthumb 36.2703 16.5053
rfemur -1.61775 -19.1828 7.91143
rtibia 25.6104
rfoot 5.15426 -5.55059
rtoes 17.2884
lfemur -4.72862 3.40937 -11.3004
ltibia 27.1967
lfoot 3.01075 7.70973
ltoes 13.6983
879
root 0.164658 1.42839 19.8458 -274.167 -0.743722 -534.845
lowerback 2.91846 -0.465731 1.22227
upperback 4.09185 -0.743319 -0.409827
thorax 2.54644 -0.397149 -1.10353
lowerneck -18.3042 -2.69682 1.67891
upperneck 10.3959 -4.47035 2.24574
head 6.14871 -1.95588 -0.0203094
rclavicle -1.27222e-014 7.7526e-015
rhumerus -59.2525 49.2225 -108.549
rradius 106.637
rwrist -32.5246
rhand 6.66366 7.02687
rfingers 7.12502
rthumb 31.9555 -20.188
lclavicle -1.27222e-014 7.7526e-015
lhumerus -59.387 -58.8917 106.985
lradius 107.213
lwrist 38.7816
lhand 11.2038 -369.723
lfingers 7.12502
lthumb 36.2672 16.5273
rfemur -1.63962 -19.2477 7.90316
rtibia 25.6154
rfoot 5.21394 -5.50192
rtoes 17.3193
lfemur -4.74935 3.41247 -11.3021
ltibia 27.2004
lfoot 2.98767 7.70788
ltoes 13.7578
880
root 0.164852 1.42796 19.8458 -274.165 -0.75903 -534.845
lowerback 2.93081 -0.472322 1.19588
upperback 4.08023 -0.751627 -0.410822
thorax 2.52749 -0.401949 -1.08945
lowerneck -18.3063 -2.67956 1.72384
upperneck 10.4136 -4.44911 2.18822
head 6.15221 -1.94766 -0.0437271
rclavicle -9.54166e-015 -1.68967e-015
rhumerus -59.2806 49.2358 -108.575
rradius 106.638
rwrist -32.5441
rhand 6.65055 7.04999
rfingers 7.12502
rthumb 31.943 -20.1674
lclavicle -9.54166e-015 -1.68967e-015
lhumerus -59.3753 -58.8451 106.978
lradius 107.203
lwrist 38.7731
lhand 11.2397 -369.719
lfingers 7.12502
lthumb 36.3012 16.5229
rfemur -1.64806 -19.2304 7.89247
rtibia 25.621
rfoot 5.21232 -5.51994
rtoes 17.3039
lfemur -4.75413 3.41043 -11.3192
ltibia 27.2017
lfoot 2.9791 7.72275
ltoes 13.7051
881
root 0.164821 1.42796 19.846 -274.158 -0.742918 -534.847
lowerback 2.93758 -0.472785 1.21436
upperback 4.0739 -0.751779 -0.406933
thorax 2.51701 -0.401571 -1.09567
lowerneck -18.3417 -2.68259 1.71683
upperneck 10.44 -4.45035 2.17312
head 6.16617 -1.94872 -0.0482837
rclavicle 1.98785e-014 -1.19271e-015
rhumerus -59.2784 49.2248 -108.574
rradius 106.63
rwrist -32.618
rhand 6.69002 7.03569
rfingers 7.12502
rthumb 31.9806 -20.1741
lclavicle 1.98785e-014 -1.19271e-015
lhumerus -59.3708 -58.8402 106.971
lradius 107.215
lwrist 38.793
lhand 11.2537 -369.733
lfingers 7.12502
lthumb 36.3145 16.5056
rfemur -1.66016 -19.2342 7.91275
rtibia 25.6299
rfoot 5.21078 -5.51553
rtoes 17.3029
lfemur -4.75999 3.41195 -11.3013
ltibia 27.1988
lfoot 2.98167 7.72358
ltoes 13.6903
882
root 0.16501 1.42769 19.8459 -274.157 -0.759005 -534.845
lowerback 2.93901 -0.474916 1.18843
upperback 4.0723 -0.754819 -0.404821
thorax 2.51475 -0.403813 -1.07892
lowerneck -18.3656 -2.66977 1.71879
upperneck 10.4684 -4.43271 2.16134
head 6.17878 -1.93993 -0.0510845
rclavicle 0 3.72721e-015
rhumerus -59.2667 49.2297 -108.559
rradius 106.628
rwrist -32.6638
rhand 6.69919 7.05003
rfingers 7.12502
rthumb 31.9893 -20.1581
lclavicle 0 3.72721e-015
lhumerus -59.3736 -58.8216 106.957
lradius 107.235
lwrist 38.7941
lhand 11.2794 -369.736
lfingers 7.12502
lthumb 36.3388 16.4964
rfemur -1.66391 -19.2332 7.89651
rtibia 25.6329
rfoot 5.22253 -5.51219
rtoes 17.2244
lfemur -4.76149 3.42624 -11.3162
ltibia 27.196
lfoot 2.98702 7.72539
ltoes 13.6587
